<svg width="24" height="24" viewBox="0 0 24 24" fill="none" xmlns="http://www.w3.org/2000/svg">
  <!-- Kitten head shape - more rounded for cuteness -->
  <path d="M12 3C7 3 4.5 7 4.5 12C4.5 17 8 21 12 21C16 21 19.5 17 19.5 12C19.5 7 17 3 12 3Z" fill="#8b5cf6" />
  
  <!-- Pointy ears -->
  <path d="M7 6.5L4.5 3.5" stroke="white" stroke-width="1.5" stroke-linecap="round" stroke-linejoin="round" />
  <path d="M17 6.5L19.5 3.5" stroke="white" stroke-width="1.5" stroke-linecap="round" stroke-linejoin="round" />
  
  <!-- Big cute eyes -->
  <circle cx="9" cy="10" r="1.5" fill="white" />
  <circle cx="15" cy="10" r="1.5" fill="white" />
  
  <!-- Small nose -->
  <circle cx="12" cy="13" r="0.5" fill="white" />
  
  <!-- Cute mouth -->
  <path d="M10 15C10.5 16 11.5 16.5 12 16.5C12.5 16.5 13.5 16 14 15" stroke="white" stroke-width="1.5" stroke-linecap="round" stroke-linejoin="round" />
  
  <!-- Whiskers -->
  <path d="M7 13L4 12.5" stroke="white" stroke-width="1.5" stroke-linecap="round" stroke-linejoin="round" />
  <path d="M7 14L4 14.5" stroke="white" stroke-width="1.5" stroke-linecap="round" stroke-linejoin="round" />
  <path d="M17 13L20 12.5" stroke="white" stroke-width="1.5" stroke-linecap="round" stroke-linejoin="round" />
  <path d="M17 14L20 14.5" stroke="white" stroke-width="1.5" stroke-linecap="round" stroke-linejoin="round" />
  
  <!-- Blush marks for extra cuteness -->
  <path d="M7.5 12C7.5 12 8 12.5 8.5 12.5" stroke="white" stroke-width="1.2" stroke-linecap="round" stroke-linejoin="round" />
  <path d="M16.5 12C16.5 12 16 12.5 15.5 12.5" stroke="white" stroke-width="1.2" stroke-linecap="round" stroke-linejoin="round" />
</svg>